<svg xmlns="http://www.w3.org/2000/svg" width="68" height="68" viewBox="0 0 107.961 107.961">
  <g id="Group_2700" data-name="Group 2700" transform="translate(-847.306 -436.217)">
    <path id="Path_3209" data-name="Path 3209" d="M511.026,2051.5a53.981,53.981,0,1,1-53.98,53.98,53.981,53.981,0,0,1,53.98-53.98" transform="translate(390.26 -1615.278)" fill="#fff"/>
    <path id="Path_3229" data-name="Path 3229" d="M507.381,2051.5a50.335,50.335,0,1,1-50.335,50.335,50.335,50.335,0,0,1,50.335-50.335" transform="translate(394.261 -1611.278)" fill="#e71c4c"/>
    <path id="Icon" d="M37,49a7.008,7.008,0,0,1-7-7V7A7,7,0,0,1,44,7V42A7.008,7.008,0,0,1,37,49ZM7,49a7.008,7.008,0,0,1-7-7V7A7,7,0,0,1,14,7V42A7.007,7.007,0,0,1,7,49Z" transform="translate(879.308 465.217)" fill="#fff"/>
  </g>
</svg>